<mxfile host="app.diagrams.net" modified="2023-05-03T14:22:30.266Z" agent="Mozilla/5.0 (Windows NT 10.0; Win64; x64) AppleWebKit/537.36 (KHTML, like Gecko) Chrome/112.0.0.0 Safari/537.36" etag="lLCsljn5kqiXzR_5L1Nn" version="21.2.7" type="github">
  <diagram id="RfgNnJcljjqSp34VLbsi" name="Relações">
    <mxGraphModel dx="1434" dy="731" grid="1" gridSize="10" guides="1" tooltips="1" connect="1" arrows="1" fold="1" page="1" pageScale="1" pageWidth="827" pageHeight="1169" background="none" math="0" shadow="0">
      <root>
        <mxCell id="0" />
        <mxCell id="1" parent="0" visible="0" />
        <mxCell id="Tzo3N7kp3yUF2yP0TB6r-4" value="Ambiente" style="" parent="0" />
        <mxCell id="Tzo3N7kp3yUF2yP0TB6r-3" value="" style="rounded=0;whiteSpace=wrap;html=1;" parent="Tzo3N7kp3yUF2yP0TB6r-4" vertex="1">
          <mxGeometry x="80" y="40" width="680" height="520" as="geometry" />
        </mxCell>
        <mxCell id="A-P7cqqWQ2VC0WoIVPtm-3" value="" style="rounded=0;whiteSpace=wrap;html=1;" parent="Tzo3N7kp3yUF2yP0TB6r-4" vertex="1">
          <mxGeometry x="80" y="850" width="680" height="240" as="geometry" />
        </mxCell>
        <mxCell id="A-P7cqqWQ2VC0WoIVPtm-9" value="Empresa Cliente" style="text;html=1;strokeColor=none;fillColor=none;align=center;verticalAlign=middle;whiteSpace=wrap;rounded=0;" parent="Tzo3N7kp3yUF2yP0TB6r-4" vertex="1">
          <mxGeometry x="80" y="20" width="100" height="20" as="geometry" />
        </mxCell>
        <mxCell id="A-P7cqqWQ2VC0WoIVPtm-12" value="Sede" style="text;html=1;strokeColor=none;fillColor=none;align=center;verticalAlign=middle;whiteSpace=wrap;rounded=0;" parent="Tzo3N7kp3yUF2yP0TB6r-4" vertex="1">
          <mxGeometry x="80" y="830" width="40" height="20" as="geometry" />
        </mxCell>
        <mxCell id="A-P7cqqWQ2VC0WoIVPtm-21" value="" style="rounded=0;whiteSpace=wrap;html=1;" parent="Tzo3N7kp3yUF2yP0TB6r-4" vertex="1">
          <mxGeometry x="150" y="1380" width="480" height="120" as="geometry" />
        </mxCell>
        <mxCell id="A-P7cqqWQ2VC0WoIVPtm-23" value="Empresas proprietárias de equipamentos" style="text;html=1;strokeColor=none;fillColor=none;align=center;verticalAlign=middle;whiteSpace=wrap;rounded=0;" parent="Tzo3N7kp3yUF2yP0TB6r-4" vertex="1">
          <mxGeometry x="150" y="1350" width="230" height="30" as="geometry" />
        </mxCell>
        <mxCell id="A-P7cqqWQ2VC0WoIVPtm-24" value="" style="ellipse;shape=cloud;whiteSpace=wrap;html=1;" parent="Tzo3N7kp3yUF2yP0TB6r-4" vertex="1">
          <mxGeometry x="354" y="1260" width="120" height="80" as="geometry" />
        </mxCell>
        <mxCell id="Tzo3N7kp3yUF2yP0TB6r-5" value="Empresa" parent="0" />
        <mxCell id="A-P7cqqWQ2VC0WoIVPtm-7" style="edgeStyle=orthogonalEdgeStyle;rounded=0;orthogonalLoop=1;jettySize=auto;html=1;exitX=0.85;exitY=0.05;exitDx=0;exitDy=0;exitPerimeter=0;entryX=0.855;entryY=1;entryDx=0;entryDy=-1.45;entryPerimeter=0;" parent="Tzo3N7kp3yUF2yP0TB6r-5" source="A-P7cqqWQ2VC0WoIVPtm-2" target="A-P7cqqWQ2VC0WoIVPtm-5" edge="1">
          <mxGeometry relative="1" as="geometry" />
        </mxCell>
        <mxCell id="A-P7cqqWQ2VC0WoIVPtm-2" value="" style="shape=datastore;whiteSpace=wrap;html=1;" parent="Tzo3N7kp3yUF2yP0TB6r-5" vertex="1">
          <mxGeometry x="120" y="990" width="40" height="60" as="geometry" />
        </mxCell>
        <mxCell id="A-P7cqqWQ2VC0WoIVPtm-6" style="edgeStyle=orthogonalEdgeStyle;rounded=0;orthogonalLoop=1;jettySize=auto;html=1;exitX=0.145;exitY=1;exitDx=0;exitDy=-1.45;exitPerimeter=0;entryX=0.15;entryY=0.05;entryDx=0;entryDy=0;entryPerimeter=0;" parent="Tzo3N7kp3yUF2yP0TB6r-5" source="A-P7cqqWQ2VC0WoIVPtm-5" target="A-P7cqqWQ2VC0WoIVPtm-2" edge="1">
          <mxGeometry relative="1" as="geometry" />
        </mxCell>
        <mxCell id="A-P7cqqWQ2VC0WoIVPtm-34" style="edgeStyle=orthogonalEdgeStyle;rounded=0;orthogonalLoop=1;jettySize=auto;html=1;exitX=1;exitY=0;exitDx=0;exitDy=35;exitPerimeter=0;entryX=0;entryY=0.5;entryDx=0;entryDy=0;" parent="Tzo3N7kp3yUF2yP0TB6r-5" source="A-P7cqqWQ2VC0WoIVPtm-5" target="A-P7cqqWQ2VC0WoIVPtm-39" edge="1">
          <mxGeometry relative="1" as="geometry" />
        </mxCell>
        <mxCell id="A-P7cqqWQ2VC0WoIVPtm-5" value="" style="shape=cylinder3;whiteSpace=wrap;html=1;boundedLbl=1;backgroundOutline=1;size=5;" parent="Tzo3N7kp3yUF2yP0TB6r-5" vertex="1">
          <mxGeometry x="120" y="140" width="40" height="50" as="geometry" />
        </mxCell>
        <mxCell id="A-P7cqqWQ2VC0WoIVPtm-15" value="" style="shape=image;verticalLabelPosition=bottom;labelBackgroundColor=default;verticalAlign=top;aspect=fixed;imageAspect=0;image=data:image/png,iVBORw0KGgoAAAANSUhEUgAAAgAAAAIACAYAAAD0eNT6AAAABHNCSVQICAgIfAhkiAAAAAlwSFlzAAAOxAAADsQBlSsOGwAAABl0RVh0U29mdHdhcmUAd3d3Lmlua3NjYXBlLm9yZ5vuPBoAABQBSURBVHic7d1vrCVnXQfw73K3u8buNpZGQsXgVsQ2tNvyRxTkBSnbFVo1wZASCRoSd7E1oJgKMSa+NRHE0NalXbBVA4kWJSS+abHdLvLCoIB2Q7e12wYsrQmghUJ3q3Tb2+uLoQHbvXfvvTNnnjnn9/kk8/LM+c45d2a+95kzzyQAAAAAAAAAAAAAAAAAAAAAAAAAAAAAAAAAAAAAAAAAAAAAAAAAAAAAAAAAAAAAAACMZXeS65IcTXIiyUrj5cT3slyb5KIZbvczqm8/AMVsT3JDkuW0P+mttjyV5ECSbbYfAPrbnuRw2p/g1rvcmWFPgtW3H4Cibkz7k9pGlz+z/QCwebsz7WHv1Zanklxo+4FWntc6APS0P/P5d7yUZN8A66m+/QAUdU/a/ze72eVu2w+0sqV1AOjpeJIdrUNs0vEkZw2wjsrbD2ySAsC8W2kdoKe++2D17Qc2aR6vHQIAPSkAAFCQAgAABSkAAFCQAgAABSkAAFCQAgAABW1tHQAacx9+P/O+/VCWEQAAKEgBAICCFAAAKEgBAICCFAAAKEgBAICCFAAAKEgBYGy7k1yX5GiSE+nuI++z9OX95/v9T6T7W7o2yUUD5AFgYNuT3JBkOf0P+hbLqZankhxIsi3AafWdBQzWY3uS25Jc2joIJRxOcnmSk62DwJQttQ5ACQeSXNk6BGWcl+TsdKUTWIURAGZtd5Ij8XsTxrWc5JIk97QOAlPloMys7Y+/M8a3lGRf6xAwZQ7MzNplrQNQ1t7WAWDKXAJg1o4n2dE6BCUdT3JW6xAwVQoAs7bSOgClOcbBKlwCAICCFAAAKEgBAICCFAAAKEgBAICCFAAAKEgBAICCtrYOAKfhPu7azCMBM2IEAAAKUgAAoCAFAAAKUgAAoCAFAAAKUgAAoCAFAAAKUgAAoCAFAAAKUgAAoCAFAAAKUgAAoCAFAAAKUgAAoCAFAAAKUgAAoCAFAAAKUgAAoCAFAAAKUgAAoCAFAAAKUgAAoCAFAAAKUgAAoCAFAAAKUgAAoCAFAAAKUgAAoCAFAAAKUgAAoCAFAAAKUgAAoCAFAAAKUgAAoCAFAAAKUgAAoCAFAAAKUgAAoCAFAAAKUgAAoCAFAAAKUgAAoCAFAAAKUgAAoCAFAAAKUgAAoCAFAAAK2to6AJzGSusAAIvICAAAFKQAAEBBCgAAFKQAAEBBCgAAFKQAAEBBCgAAFKQAMGvHWwegrMdaB4ApUwCYtYdbB6Csh1oHgClTAJi1O1oHoKzbWweAKdvSOgAL76IkR5IstQ5CKctJLk5yb+sgMFVGAJi1o0kOtg5BOR+Okz+syQgAY9iW5NYke1oHoYRDSa5I8mTrIDBlhmUZw3KSW5KcneRVMfLEbCwnOZDkHXHyh9MyAsDYLkyyL8neJLuS7Giahnl3IsmD6X7wd3MM+8O6KQAsupWer6++j/j8YEEZigWAghQAAChIAQCAghQAAChIAQCAghQAAChIAQCAghQAAChIAQCAghQAAChIAQCAghQAAChIAQCAghQAAChIAQCAgjyrexpemOQNSX4uyQVJfjLJOUl2JDmjYS6Ayk4meTzJo0lOJPlGkvuT3JfkWJK7kjzSLF1PCkA75yR5e5JfT/IzjbMAsHFPJ7k7yeHvLYeSfLdpog1QAMb340nem+SdSX64cRYAhvOdJH+b5GNJ/inJSts4a1MAxnNGkt9L8odJzmycBYDZeiDJB9KVgZONs5ySAjCO85N8IsklrYMAMKr/TPInST6aiV0eUABm7y1J/irdD/oAqOnLSd6d5NOtgzzDbYCzdXW6//yd/AFqe0mS25J8MsmLGmdJYgRglq5KcrB1CAAm5ztJ9qcrA80stXzzBfaWJH8ZIywAPNcPJbkyyc4kn0l3O+HojAAM7/wkX4xhfwBO77NJ3pzk22O/sQIwrG1JPh+/9gdg/b6U5E1JvjbmmxqiHtY1cfIHYGMuTjdx0EvGfFMjAMN5Ubq5oU3yA8Bm/EeS12WkkQAjAMN5X5z8Adi885LcnuTsMd7MCMAwzknyUMztD0B/n02yN8mTs3wTIwDDeHuc/AEYxuuT/FHrEKzPF9I99WmI5UtJ3pPkwkzjkkLf7QEW16IfH85INxz/U0l+IcnvJPnrdNfohzrmr7Y8neSXZr+J9HFuui+q75f93SS/lemNyiz6Dg5sXuXjw6uTXJ/kkcyuBDySiUwbzKm9LcOc/C8dO/g6Vd7BgbU5PnQjtb+b7ql/sygBfzfeprBR16X/F3z16KnXzw4OrMbx4fvOTPL+JCczfAl444jbwQb8Q/p9sV/K9Ib9f5AdHFiN48NzvTzdnDBDFoD7k2wfcyNYny+n3xf7nvEjb4gdHFiN48Op7UzyqQxbAt416hawLt9Mvy/1ZeNH3hA7OLAax4fVLSX5SIYrAF9N97wZJuSJ9PtSp/7UQDs4sBrHh9O7PsOVgH1DBjMTYH99/4in/h3M2/btTrI/yZ4kuzKNuRRgVh5P8mCSQ0luSnJ05Peft+NDC0tJPpnukb993Z/kgtQpT5O36A14XrZve5IbkiwPkNlimcflqSQHMu4wcd/MVexI8u8Z5nv++ZGzs4ZF3wHmYfu2Jzk8QFaLZRGWOzNeCeibtZJXZJhbBA8OFWjKt5/Bel2b6U6kBGN7Q5I/bR2C57gr3bwxfb01A90SWOH6y6z1bbFT/w6mvn27kxyJMgs/aDnJJUnumfH7TP34MDU70l3HP7fneq5IclvfMA6azLv98XcMz7aUgX8xziBOJPngAOsZZMTTgZN5d1nrADBRe1sH4JQ+km7+mD72DBFEAWDevbh1AJion2gdgFN6PMnf9FzHy5M8v28QBYB5N/WJlKCVna0DsKqP93z989LdVdB7JQDAeL6Q5Bs91/HTfUMoAAAwrpUk/9hzHef3DaEAAMD4/rnn6xUAAJhDx3q+/oV9AygAADC+B3q+/qy+ARQAABjft3u+vvddHgoAAIzveM/X9x4BqDYP8yws+lzYU9++qeeDPqb+9906X+snCrbO3+v9jQAAQEEKAAAUpAAAQEEKAAAUpAAAQEEKAAAUpAAAQEFbWweAxlrfRwzQhBEAAChIAQCAghQAAChIAQCAghQAAChIAQCAghQAACjIPAAAzKstrQPMMyMAAFCQAgAABSkAAFCQAgAABSkAAFCQAgAABSkAAFCQeQCozn3ETNlK6wAsLiMAAFCQAgAABSkAAFCQAgAABSkAAFCQAgAABSkAAFCQeQCozn3WML9a779zPY+IEQAAKEgBAICCFAAAKEgBAICCFAAAKEgBAICCFAAAKGgW8wDsTrI/yZ4ku5KcOYP3AAB6GLIAbE/yoSRXxcgCAEzaUAVge5Lbklw60PoAgBka6j/1a+PkDwBzY4h5jHcnORLD/ps19bmk+861Pevtaz0XOEzZ1Pe/vvla7/+t8/d6/yFO2vsHWg8AMJIhTtyXDbAOAGBEQxSAFw+wDgBgRENcH2p9DWbe+Q1AP1PPB31M/e976vmmbu5/AwAAzBkFAAAKUgAAoCAFAAAKUgAAoCAFAAAKUgAAoKAhHwe8WfN+H6h5EACYO0YAAKAgBQAAClIAAKAgBQAAClIAAKAgBQAAClIAAKAgBQAAClIAAKAgBQAAClIAAKAgBQAAClIAAKAgBQAAClIAAKAgBQAAClIAAKAgBQAAClIAAKAgBQAAClIAAKAgBQAAClIAAKAgBQAAClIAAKAgBQAAClIAAKAgBQAAClIAAKAgBQAAClIAAKCgra0DJFlpHQAAqjECAAAFKQAAUJACAAAFKQAAUJACAAAFKQAAUJACAAAFDTEPwPEkOwdYD7RgHgqgpCFGAB4eYB0AwIiGKAB3DLAOAGBEQxSAm5IsD7AeAGAkQxSAo0kODrAeAGAkWwZaz7YktybZM9D6KhnqO5iVvj+Sm/X2+REfrG7q+9/Uj3+z1vTzG+o2wJNJrkhyIC4HAMDkzaJ9XZhkX5K9SXYl2TGD91gkU2/AU2/4RgBgdVPf/6Z+/Ju1pp9f9Q9/CIu+A0x9+xQAWN3U97+pH/9mbSEuAQAAc0QBAICCFAAAKEgBAICCFAAAKEgBAICCFAAAKGhr6wDQWPX7kJk281wwM0YAAKAgBQAAClIAAKAgBQAAClIAAKAgBQAAClIAAKAg8wBQnfusgZKMAABAQQoAABSkAABAQQoAABSkAABAQQoAABSkAABAQQoAABSkAABAQQoAABSkAABAQQoAABSkAABAQQoAABSkAABAQVtbB4DGtrQOAGtYaR2AxWUEAAAKUgAAoCAFAAAKUgAAoCAFAAAKUgAAoCAFAAAKMg8A1bnPGijJCAAAFKQAAEBBCgAAFKQAAEBBCgAAFKQAAEBBCgAAFKQAMO+Otw4AE/VY6wCsaXvP1z/RN4ACwLx7uHUAmKiHWgdgTTt7vr53wVMAmHd3tA4AE3V76wCs6Ud6vr736KcCwLy7Kcly6xAwMctJbm4dgjW9tOfrjQBQ3tEkB1uHgIn5cJJ7W4dgTef3fP3X+wZQAFgE1yS5s3UImIhDSd7bOgSn9dqerz/WN4ACwCI4meSKJAficgB1LSe5Pt2+8GTjLKxtS5LX91xH7wKwpe8K6P042al/B/O2fRcm2Zdkb5JdSXaM/P4wphNJHkz3g7+bM/6w/7wdH6biNUk+13Mde5IcHiALPaz0XKZu0bcP2DzHh805kH6f23KS54+emudY9B1g0bcP2DzHh407M8kj6fe5fXGIIH4DAADjuTrJOT3X4UfPE7HoDXjRtw/YPMeHjdmZ5Gvp/7m9aezgnNqi7wCLvn3A5jk+bMwH0/8z+1b6P0eAgSz6DrDo2wdsnuPD+r0y3S3LfT+zG8cOzuoWfQdY9O0DNs/xYX12JLkv/T+vlfSfQIgBLfoOsOjbB2ye48PpLSX5+wxz8r8vdedOmKQn0u8L7ftIyFmzgwOrcXxY25Ykf55hTv4rSX5j3PiczjfT7wt92fiRN8QODqzG8WF1S0k+muFO/g8mOWPIgOYB6O/Rnq/fO0gKAKbirCSfSvLOAdf5gXjGw+R8Ov1a3d3pmuJUafjAahwfnuuVSR7IcP/5r6S79u/Wvwm6Lv2/3HeNnnr97ODAahwfvm9nuvv8h7jV79nLZSNuBxvwtvT/cp9I92SnKbKDA6txfOjm9r8mw8zwd6rllvE2hY16YZKnM0wJeHemdznADg6spurxYUu6R/oeSP8fgq+1/HeSH5vlRtDf55O8eqB13ZPuud53pPvV54mB1rtZfXdSf2OwuBb9+LAt3SQ+P5rkvCQXpDvxX5rkBTN+75Ukv5jktlm9wdQ//Hnx20mubx0CgIXxx0n+YJZvoAAM45wkX013LQgA+jic5I1Jnprlm0ztevO8+t90Q0SvaR0EgLl2d5LLk/zPrN/ICMBwXpTkWIwCALA5X0nyuiRfH+PNjAAM53i64Roz+wGwUV9Jd/54eKw3NAIwrDOS/EuSV7QOAsDcOJJu2H+U//yf4VkAw3oyya+mGw0AgNM5nOT1GfnknygAs3B/knckWW4dBIDJWkny/nS/9n+sRQC/AZiN+9K1uV9uHQSAyXkkyVuT3JhuJtkmFIDZ+dd0c0NfESMtAHQ+keRXkvxb6yB+BDh7b07ysXRPigKgpmPpnvdyqHWQZygA43hputbn7gCAWr6a5ANJbkr3qODJcAlgHN9K8hfp7g54bboHTACwuI4l+f0k+9PdHj65H4YbARjfuUnel+Q3Y9ZAgEXyaLrR3o8n+Vwm/shjBaCdc5K8LcmvJfnZ+C4A5s3TSe5Kdy//4SSfSfJE00Qb4KQzDS9I93zp16R73vR56R4utCMuFwC0cjLdpdvvfG/5r3S3eR9LN+fLXeku8c4lBYCp6zuE5m+ceebvn5lxfzoAFKQAAEBBCgAAFKQAAEBBCgAAFKQAAEBBCgAAFKQAAEBBCgAAFKQAAEBBCgAAFKQAAEBBCgAAFKQAAEBBCgAAFORZ0Tzb7iT7k+xJsivJmU3TAPPs8SQPJjmU5KYkR5um4f9RAHjG9iQfSnJVjAwBw1tOcjDJNUlONs5CFAA625PcluTS1kGAhXc4yeVRAppbah2ASTiQ5MrWIYASzktydrp/OmjICAC7kxyJYX9gPMtJLklyT+sglTnosz/+DoBxLSXZ1zpEdQ78XNY6AFDS3tYBqnMJgONJdrQOAZRzPMlZrUNUpgCw0joAUJZzUEMuAQBAQQoAABSkAABAQQoAABSkAABAQQoAABSkAABAQVtbB2DuuY8X6jKPyBwzAgAABSkAAFCQAgAABSkAAFCQAgAABSkAAFCQAgAABSkAAFCQAgAABSkAAFCQAgAABSkAAFCQAgAABSkAAFCQAgAABW1tHYC553ngAHPICAAAFKQAAEBBCgAAFKQAAEBBCgAAFKQAAEBBCgAAFKQAcLx1AKCkx1oHqE4B4OHWAYCSHmodoDoFgDtaBwBKur11gOq2tA5AcxclOZJkqXUQoIzlJBcnubd1kMqMAHA0ycHWIYBSPhwn/+aMAJAk25LcmmRP6yDAwjuU5IokT7YOUp1hX5JuOO6WJGcneVWMDAHDW05yIMk74uQ/CUYAeLYLk+xLsjfJriQ7mqYB5tmJJA+m+8HfzTHsDwAAAAAAAAAAAAAAAAAAAAAAAAAAAAAAAAAAAAAAAAAAAAAAAAAAAAAAAAAAAAAAAAAAAAAAAAAAAAAAAAAAAAAAAAAAAAAAAAAAAAAAAAAAAAAAAAAAAAAAAAAAAAAAAAAAAAAAAAAAAAAAAAAAAAAAAAAAAAAAAAAAAAAAAAAAAAAAAAAAAAAAAAAAAAAwU/8HqWkdKztxWtIAAAAASUVORK5CYII=;" parent="Tzo3N7kp3yUF2yP0TB6r-5" vertex="1">
          <mxGeometry x="640" y="130" width="80" height="80" as="geometry" />
        </mxCell>
        <mxCell id="A-P7cqqWQ2VC0WoIVPtm-22" value="" style="shape=datastore;whiteSpace=wrap;html=1;" parent="Tzo3N7kp3yUF2yP0TB6r-5" vertex="1">
          <mxGeometry x="100" y="1250" width="40" height="60" as="geometry" />
        </mxCell>
        <mxCell id="A-P7cqqWQ2VC0WoIVPtm-31" style="edgeStyle=orthogonalEdgeStyle;rounded=0;orthogonalLoop=1;jettySize=auto;html=1;exitX=1;exitY=0.5;exitDx=0;exitDy=0;entryX=0;entryY=0.25;entryDx=0;entryDy=0;startArrow=classicThin;startFill=1;" parent="Tzo3N7kp3yUF2yP0TB6r-5" source="A-P7cqqWQ2VC0WoIVPtm-27" target="A-P7cqqWQ2VC0WoIVPtm-15" edge="1">
          <mxGeometry relative="1" as="geometry" />
        </mxCell>
        <mxCell id="A-P7cqqWQ2VC0WoIVPtm-43" style="edgeStyle=orthogonalEdgeStyle;rounded=0;orthogonalLoop=1;jettySize=auto;html=1;exitX=0.5;exitY=1;exitDx=0;exitDy=0;entryX=0.5;entryY=0;entryDx=0;entryDy=0;" parent="Tzo3N7kp3yUF2yP0TB6r-5" source="A-P7cqqWQ2VC0WoIVPtm-27" target="A-P7cqqWQ2VC0WoIVPtm-37" edge="1">
          <mxGeometry relative="1" as="geometry" />
        </mxCell>
        <mxCell id="A-P7cqqWQ2VC0WoIVPtm-44" style="edgeStyle=orthogonalEdgeStyle;rounded=0;orthogonalLoop=1;jettySize=auto;html=1;exitX=0;exitY=0.25;exitDx=0;exitDy=0;entryX=1;entryY=0;entryDx=0;entryDy=15;entryPerimeter=0;" parent="Tzo3N7kp3yUF2yP0TB6r-5" source="A-P7cqqWQ2VC0WoIVPtm-27" target="A-P7cqqWQ2VC0WoIVPtm-5" edge="1">
          <mxGeometry relative="1" as="geometry" />
        </mxCell>
        <mxCell id="A-P7cqqWQ2VC0WoIVPtm-27" value="" style="shape=image;verticalLabelPosition=bottom;labelBackgroundColor=default;verticalAlign=top;aspect=fixed;imageAspect=0;image=data:image/svg+xml,PHN2ZyB4bWxucz0iaHR0cDovL3d3dy53My5vcmcvMjAwMC9zdmciIHZlcnNpb249IjEuMSIgaWQ9InN2ZzIiIGhlaWdodD0iNDIwIiB3aWR0aD0iNDIwIiB2aWV3Qm94PSIwIDAgNDIwIDQyMCI+JiN4YTsgIDxkZWZzIGlkPSJkZWZzNCIvPiYjeGE7ICAmI3hhOyAgPG1ldGFkYXRhIGlkPSJtZXRhZGF0YTciPiYjeGE7ICAgICYjeGE7ICAgICAgJiN4YTsgICAgICAgIGltYWdlL3N2Zyt4bWwmI3hhOyAgICAgICAgJiN4YTsgICAgICAgICYjeGE7ICAgICAgJiN4YTsgICAgJiN4YTsgIDwvbWV0YWRhdGE+JiN4YTsgIDxnIHRyYW5zZm9ybT0idHJhbnNsYXRlKC0xNzIuODU3MTMsLTM4NS4yMTkzMSkiIGlkPSJsYXllcjEiPiYjeGE7ICAgIDxwYXRoIGlkPSJwYXRoMjk5NiIgZD0ibSAxODguOTM2NjgsNzM0Ljg0MjA0IDAsLTU0LjI5NzczIDU0LjI5NzcyLDAgNTQuMjk3NzMsMCAwLDU0LjI5NzczIDAsNTQuMjk3NzIgLTU0LjI5NzczLDAgLTU0LjI5NzcyLDAgMCwtNTQuMjk3NzIgeiBtIDkzLjA4MTgyLDAgMCwtMzguNzg0MSAtMzguNzg0MSwwIC0zOC43ODQwOCwwIDAsMzguNzg0MSAwLDM4Ljc4NDA4IDM4Ljc4NDA4LDAgMzguNzg0MSwwIDAsLTM4Ljc4NDA4IHogbSAtNjIuMDU0NTUsMCAwLC0yMy4yNzA0NiAyMy4yNzA0NSwwIDIzLjI3MDQ2LDAgMCwyMy4yNzA0NiAwLDIzLjI3MDQ1IC0yMy4yNzA0NiwwIC0yMy4yNzA0NSwwIDAsLTIzLjI3MDQ1IHogbSA5My4wODE4Miw0Ni41NDA5IDAsLTcuNzU2ODIgNy43NTY4MSwwIDcuNzU2ODIsMCAwLC03Ljc1NjgxIDAsLTcuNzU2ODIgLTcuNzU2ODIsMCAtNy43NTY4MSwwIDAsLTcuNzU2ODIgMCwtNy43NTY4MSA3Ljc1NjgxLDAgNy43NTY4MiwwIDAsLTcuNzU2ODIgMCwtNy43NTY4MiA3Ljc1NjgyLDAgNy43NTY4MiwwIDAsLTcuNzU2ODIgMCwtNy43NTY4MiA3Ljc1NjgyLDAgNy43NTY4MiwwIDAsLTcuNzU2ODIgMCwtNy43NTY4MiA3Ljc1NjgyLDAgNy43NTY4MSwwIDAsLTE1LjUxMzYzIDAsLTE1LjUxMzY0IC03Ljc1NjgxLDAgLTcuNzU2ODIsMCAwLDcuNzU2ODIgMCw3Ljc1NjgyIC03Ljc1NjgyLDAgLTcuNzU2ODIsMCAwLDcuNzU2ODIgMCw3Ljc1NjgxIC0xNS41MTM2NCwwIC0xNS41MTM2MywwIDAsLTE1LjUxMzYzIDAsLTE1LjUxMzY0IC0xNS41MTM2NCwwIC0xNS41MTM2MywwIDAsLTcuNzU2ODEgMCwtNy43NTY4MiAtNy43NTY4MiwwIC03Ljc1NjgyLDAgMCw3Ljc1NjgyIDAsNy43NTY4MSAtNy43NTY4MiwwIC03Ljc1NjgyLDAgMCwtNy43NTY4MSAwLC03Ljc1NjgyIDcuNzU2ODIsMCA3Ljc1NjgyLDAgMCwtNy43NTY4MiAwLC03Ljc1NjgyIDcuNzU2ODIsMCA3Ljc1NjgyLDAgMCwtNy43NTY4MiAwLC03Ljc1NjgyIDcuNzU2ODEsMCA3Ljc1NjgyLDAgMCwtNy43NTY4MiAwLC03Ljc1NjgxIC03Ljc1NjgyLDAgLTcuNzU2ODEsMCAwLC03Ljc1NjgyIDAsLTcuNzU2ODIgLTcuNzU2ODIsMCAtNy43NTY4MiwwIDAsMTUuNTEzNjQgMCwxNS41MTM2MyAtMjMuMjcwNDYsMCAtMjMuMjcwNDUsMCAwLDcuNzU2ODIgMCw3Ljc1NjgyIC0xNS41MTM2MywwIC0xNS41MTM2NCwwIDAsLTcuNzU2ODIgMCwtNy43NTY4MiA3Ljc1NjgyLDAgNy43NTY4MiwwIDAsLTcuNzU2ODIgMCwtNy43NTY4MSAtNy43NTY4MiwwIC03Ljc1NjgyLDAgMCwtNy43NTY4MiAwLC03Ljc1NjgyIDE1LjUxMzY0LDAgMTUuNTEzNjMsMCAwLC03Ljc1NjgxIDAsLTcuNzU2ODIgNy43NTY4MiwwIDcuNzU2ODEsMCAwLC0xNS41MTM2NCAwLC0xNS41MTM2NCAtNy43NTY4MSwwIC03Ljc1NjgyLDAgMCw3Ljc1NjgyIDAsNy43NTY4MiAtNy43NTY4MiwwIC03Ljc1NjgxLDAgMCw3Ljc1NjgyIDAsNy43NTY4MiAtNy43NTY4MiwwIC03Ljc1NjgyLDAgMCwtNy43NTY4MiAwLC03Ljc1NjgyIDcuNzU2ODIsMCA3Ljc1NjgyLDAgMCwtNy43NTY4MiAwLC03Ljc1NjgyIC03Ljc1NjgyLDAgLTcuNzU2ODIsMCAwLC03Ljc1NjgyIDAsLTcuNzU2ODEgNy43NTY4MiwwIDcuNzU2ODIsMCAwLDcuNzU2ODEgMCw3Ljc1NjgyIDcuNzU2ODEsMCA3Ljc1NjgyLDAgMCwtNy43NTY4MiAwLC03Ljc1NjgxIDcuNzU2ODIsMCA3Ljc1NjgxLDAgMCw3Ljc1NjgxIDAsNy43NTY4MiAxNS41MTM2NCwwIDE1LjUxMzY0LDAgMCw3Ljc1NjgyIDAsNy43NTY4MiAzMS4wMjcyNywwIDMxLjAyNzI3LDAgMCwtNy43NTY4MiAwLC03Ljc1NjgyIDcuNzU2ODIsMCA3Ljc1NjgyLDAgMCwtNy43NTY4MiAwLC03Ljc1NjgxIC03Ljc1NjgyLDAgLTcuNzU2ODIsMCAwLC03Ljc1NjgyIDAsLTcuNzU2ODIgLTcuNzU2ODIsMCAtNy43NTY4MSwwIDAsLTE1LjUxMzYzIDAsLTE1LjUxMzY0IDcuNzU2ODEsMCA3Ljc1NjgyLDAgMCwxNS41MTM2NCAwLDE1LjUxMzYzIDcuNzU2ODIsMCA3Ljc1NjgyLDAgMCwtMTUuNTEzNjMgMCwtMTUuNTEzNjQgNy43NTY4MiwwIDcuNzU2ODIsMCAwLC03Ljc1NjgyIDAsLTcuNzU2ODIgLTE1LjUxMzY0LDAgLTE1LjUxMzY0LDAgMCwtNy43NTY4MiAwLC03Ljc1NjgyIC03Ljc1NjgyLDAgLTcuNzU2ODEsMCAwLC03Ljc1NjgxIDAsLTcuNzU2ODIgNy43NTY4MSwwIDcuNzU2ODIsMCAwLC03Ljc1NjgyIDAsLTcuNzU2ODEgLTcuNzU2ODIsMCAtNy43NTY4MSwwIDAsLTcuNzU2ODIgMCwtNy43NTY4MiA3Ljc1NjgxLDAgNy43NTY4MiwwIDAsNy43NTY4MiAwLDcuNzU2ODIgNy43NTY4MiwwIDcuNzU2ODIsMCAwLC03Ljc1NjgyIDAsLTcuNzU2ODIgNy43NTY4MiwwIDcuNzU2ODIsMCAwLDcuNzU2ODIgMCw3Ljc1NjgyIDcuNzU2ODIsMCA3Ljc1NjgxLDAgMCw3Ljc1NjgxIDAsNy43NTY4MiAxNS41MTM2NCwwIDE1LjUxMzYzLDAgMCwtNy43NTY4MiAwLC03Ljc1NjgxIC03Ljc1NjgyLDAgLTcuNzU2ODEsMCAwLC03Ljc1NjgyIDAsLTcuNzU2ODIgMTUuNTEzNjMsMCAxNS41MTM2NCwwIDAsMTUuNTEzNjQgMCwxNS41MTM2MyA3Ljc1NjgyLDAgNy43NTY4MiwwIDAsLTcuNzU2ODIgMCwtNy43NTY4MSA3Ljc1NjgyLDAgNy43NTY4MSwwIDAsNy43NTY4MSAwLDcuNzU2ODIgLTcuNzU2ODEsMCAtNy43NTY4MiwwIDAsNy43NTY4MiAwLDcuNzU2ODEgLTcuNzU2ODIsMCAtNy43NTY4MiwwIDAsMTUuNTEzNjQgMCwxNS41MTM2NCAtNy43NTY4MiwwIC03Ljc1NjgyLDAgMCwtNy43NTY4MiAwLC03Ljc1NjgyIC03Ljc1NjgyLDAgLTcuNzU2ODEsMCAwLDcuNzU2ODIgMCw3Ljc1NjgyIC03Ljc1NjgyLDAgLTcuNzU2ODIsMCAwLDcuNzU2ODIgMCw3Ljc1NjgyIDcuNzU2ODIsMCA3Ljc1NjgyLDAgMCwzMS4wMjcyNyAwLDMxLjAyNzI3IDE1LjUxMzYzLDAgMTUuNTEzNjQsMCAwLC0xNS41MTM2NCAwLC0xNS41MTM2MyAtNy43NTY4MiwwIC03Ljc1NjgyLDAgMCwtMTUuNTEzNjQgMCwtMTUuNTEzNjMgNy43NTY4MiwwIDcuNzU2ODIsMCAwLDE1LjUxMzYzIDAsMTUuNTEzNjQgNy43NTY4MiwwIDcuNzU2ODIsMCAwLDcuNzU2ODEgMCw3Ljc1NjgyIDIzLjI3MDQ1LDAgMjMuMjcwNDUsMCAwLC03Ljc1NjgyIDAsLTcuNzU2ODEgNy43NTY4MiwwIDcuNzU2ODIsMCAwLDE1LjUxMzYzIDAsMTUuNTEzNjQgNy43NTY4MiwwIDcuNzU2ODIsMCAwLC03Ljc1NjgyIDAsLTcuNzU2ODIgNy43NTY4MiwwIDcuNzU2ODIsMCAwLC03Ljc1NjgyIDAsLTcuNzU2ODEgNy43NTY4MSwwIDcuNzU2ODIsMCAwLDcuNzU2ODEgMCw3Ljc1NjgyIDcuNzU2ODIsMCA3Ljc1NjgxLDAgMCwtNy43NTY4MiAwLC03Ljc1NjgxIDcuNzU2ODIsMCA3Ljc1NjgyLDAgMCwyMy4yNzA0NSAwLDIzLjI3MDQ2IC03Ljc1NjgyLDAgLTcuNzU2ODIsMCAwLC03Ljc1NjgyIDAsLTcuNzU2ODIgLTcuNzU2ODEsMCAtNy43NTY4MiwwIDAsNy43NTY4MiAwLDcuNzU2ODIgLTcuNzU2ODIsMCAtNy43NTY4MSwwIDAsNy43NTY4MiAwLDcuNzU2ODEgLTcuNzU2ODIsMCAtNy43NTY4MiwwIDAsLTcuNzU2ODEgMCwtNy43NTY4MiAtMjMuMjcwNDYsMCAtMjMuMjcwNDUsMCAwLC03Ljc1NjgyIDAsLTcuNzU2ODIgLTE1LjUxMzY0LDAgLTE1LjUxMzYzLDAgMCw3Ljc1NjgyIDAsNy43NTY4MiAtNy43NTY4MiwwIC03Ljc1NjgyLDAgMCwxNS41MTM2MyAwLDE1LjUxMzY0IDcuNzU2ODIsMCA3Ljc1NjgyLDAgMCwtNy43NTY4MiAwLC03Ljc1NjgyIDIzLjI3MDQ1LDAgMjMuMjcwNDUsMCAwLDcuNzU2ODIgMCw3Ljc1NjgyIDcuNzU2ODIsMCA3Ljc1NjgyLDAgMCw3Ljc1NjgxIDAsNy43NTY4MiAtMTUuNTEzNjQsMCAtMTUuNTEzNjMsMCAwLC03Ljc1NjgyIDAsLTcuNzU2ODEgLTcuNzU2ODIsMCAtNy43NTY4MiwwIDAsNy43NTY4MSAwLDcuNzU2ODIgLTcuNzU2ODEsMCAtNy43NTY4MiwwIDAsMTUuNTEzNjQgMCwxNS41MTM2NCAxNS41MTM2MywwIDE1LjUxMzY0LDAgMCwtNy43NTY4MiAwLC03Ljc1NjgyIDIzLjI3MDQ1LDAgMjMuMjcwNDYsMCAwLC03Ljc1NjgyIDAsLTcuNzU2ODIgMTUuNTEzNjQsMCAxNS41MTM2MywwIDAsLTcuNzU2ODIgMCwtNy43NTY4MSA3Ljc1NjgyLDAgNy43NTY4MSwwIDAsLTcuNzU2ODIgMCwtNy43NTY4MiA3Ljc1NjgyLDAgNy43NTY4MiwwIDAsMjMuMjcwNDUgMCwyMy4yNzA0NiAtNy43NTY4MiwwIC03Ljc1NjgyLDAgMCwtNy43NTY4MiAwLC03Ljc1NjgyIC03Ljc1NjgxLDAgLTcuNzU2ODIsMCAwLDcuNzU2ODIgMCw3Ljc1NjgyIC03Ljc1NjgyLDAgLTcuNzU2ODEsMCAwLDcuNzU2ODIgMCw3Ljc1NjgyIC03Ljc1NjgyLDAgLTcuNzU2ODIsMCAwLDQ2LjU0MDkgMCw0Ni41NDA5MiA3Ljc1NjgyLDAgNy43NTY4MiwwIDAsLTcuNzU2ODIgMCwtNy43NTY4MiA3Ljc1NjgxLDAgNy43NTY4MiwwIDAsLTcuNzU2ODIgMCwtNy43NTY4MiA3Ljc1NjgyLDAgNy43NTY4MSwwIDAsMTUuNTEzNjQgMCwxNS41MTM2NCA3Ljc1NjgyLDAgNy43NTY4MiwwIDAsNy43NTY4MSAwLDcuNzU2ODIgLTE1LjUxMzY0LDAgLTE1LjUxMzYzLDAgMCwtNy43NTY4MiAwLC03Ljc1NjgxIC03Ljc1NjgyLDAgLTcuNzU2ODEsMCAwLDcuNzU2ODEgMCw3Ljc1NjgyIC03Ljc1NjgyLDAgLTcuNzU2ODIsMCAwLDcuNzU2ODIgMCw3Ljc1NjgxIDcuNzU2ODIsMCA3Ljc1NjgyLDAgMCw3Ljc1NjgyIDAsNy43NTY4MiAtNy43NTY4MiwwIC03Ljc1NjgyLDAgMCwtNy43NTY4MiAwLC03Ljc1NjgyIC0xNS41MTM2NCwwIC0xNS41MTM2NCwwIDAsLTE1LjUxMzYzIDAsLTE1LjUxMzYzIDcuNzU2ODIsMCA3Ljc1NjgyLDAgMCwtNy43NTY4MiAwLC03Ljc1NjgyIC0xNS41MTM2NCwwIC0xNS41MTM2MywwIDAsNy43NTY4MiAwLDcuNzU2ODIgLTcuNzU2ODIsMCAtNy43NTY4MiwwIDAsLTcuNzU2ODIgMCwtNy43NTY4MiAtNy43NTY4MSwwIC03Ljc1NjgyLDAgMCwxNS41MTM2NCAwLDE1LjUxMzYzIDE1LjUxMzYzLDAgMTUuNTEzNjQsMCAwLDcuNzU2ODIgMCw3Ljc1NjgxIC03Ljc1NjgyLDAgLTcuNzU2ODIsMCAwLDcuNzU2ODIgMCw3Ljc1NjgyIC03Ljc1NjgxLDAgLTcuNzU2ODIsMCAwLC0xNS41MTM2NCAwLC0xNS41MTM2MyAtMTUuNTEzNjQsMCAtMTUuNTEzNjQsMCAwLC0xNS41MTM2MyAwLC0xNS41MTM2NCA3Ljc1NjgyLDAgNy43NTY4MiwwIDAsLTcuNzU2ODIgMCwtNy43NTY4MiAtNy43NTY4MiwwIC03Ljc1NjgyLDAgMCwtNy43NTY4MiAwLC03Ljc1NjgyIDE1LjUxMzY0LDAgMTUuNTEzNjQsMCAwLC0yMy4yNzA0NSAwLC0yMy4yNzA0NSAtNy43NTY4MiwwIC03Ljc1NjgyLDAgMCwtMjMuMjcwNDYgMCwtMjMuMjcwNDUgLTcuNzU2ODIsMCAtNy43NTY4MiwwIDAsNy43NTY4MSAwLDcuNzU2ODIgLTcuNzU2ODIsMCAtNy43NTY4MSwwIDAsLTcuNzU2ODIgMCwtNy43NTY4MSA3Ljc1NjgxLDAgNy43NTY4MiwwIDAsLTE1LjUxMzY0IDAsLTE1LjUxMzYzIC0xNS41MTM2MywwIC0xNS41MTM2NCwwIDAsNy43NTY4MiAwLDcuNzU2ODEgLTE1LjUxMzYzLDAgLTE1LjUxMzY0LDAgMCw3Ljc1NjgyIDAsNy43NTY4MiA3Ljc1NjgyLDAgNy43NTY4MiwwIDAsNy43NTY4MSAwLDcuNzU2ODIgNy43NTY4MiwwIDcuNzU2ODEsMCAwLDcuNzU2ODIgMCw3Ljc1NjgyIC0xNS41MTM2MywwIC0xNS41MTM2NCwwIDAsLTcuNzU2ODIgMCwtNy43NTY4MiAtNy43NTY4MiwwIC03Ljc1NjgyLDAgMCwtMTUuNTEzNjMgMCwtMTUuNTEzNjQgLTE1LjUxMzYzLDAgLTE1LjUxMzY0LDAgMCw3Ljc1NjgyIDAsNy43NTY4MiA3Ljc1NjgyLDAgNy43NTY4MiwwIDAsMzEuMDI3MjcgMCwzMS4wMjcyNyA3Ljc1NjgxLDAgNy43NTY4MiwwIDAsLTcuNzU2ODEgMCwtNy43NTY4MiAzMS4wMjcyOCwwIDMxLjAyNzI3LDAgMCw3Ljc1NjgyIDAsNy43NTY4MSA3Ljc1NjgxLDAgNy43NTY4MiwwIDAsNy43NTY4MiAwLDcuNzU2ODIgLTcuNzU2ODIsMCAtNy43NTY4MSwwIDAsMjMuMjcwNDUgMCwyMy4yNzA0NiAtNy43NTY4MiwwIC03Ljc1NjgyLDAgMCwtNy43NTY4MiAwLC03Ljc1NjgyIC03Ljc1NjgxLDAgLTcuNzU2ODIsMCAwLDE1LjUxMzY0IDAsMTUuNTEzNjQgNy43NTY4MiwwIDcuNzU2ODEsMCAwLDcuNzU2ODEgMCw3Ljc1NjgyIDcuNzU2ODIsMCA3Ljc1NjgyLDAgMCwxNS41MTM2MyAwLDE1LjUxMzY0IC0zOC43ODQwOSwwIC0zOC43ODQwOSwwIDAsLTcuNzU2ODIgeiBtIDQ2LjU0MDkxLC0zMS4wMjcyNyAwLC03Ljc1NjgxIC0xNS41MTM2NCwwIC0xNS41MTM2NCwwIDAsNy43NTY4MSAwLDcuNzU2ODIgMTUuNTEzNjQsMCAxNS41MTM2NCwwIDAsLTcuNzU2ODIgeiBtIDEzOS42MjI3MiwtNjIuMDU0NTQgMCwtMjMuMjcwNDYgLTIzLjI3MDQ1LDAgLTIzLjI3MDQ2LDAgMCwyMy4yNzA0NiAwLDIzLjI3MDQ1IDIzLjI3MDQ2LDAgMjMuMjcwNDUsMCAwLC0yMy4yNzA0NSB6IG0gLTMxLjAyNzI3LDAgMCwtNy43NTY4MiA3Ljc1NjgyLDAgNy43NTY4MSwwIDAsNy43NTY4MiAwLDcuNzU2ODEgLTcuNzU2ODEsMCAtNy43NTY4MiwwIDAsLTcuNzU2ODEgeiBtIC0xNzAuNjUsLTQ2LjU0MDkxIDAsLTcuNzU2ODIgLTcuNzU2ODIsMCAtNy43NTY4MSwwIDAsNy43NTY4MiAwLDcuNzU2ODIgNy43NTY4MSwwIDcuNzU2ODIsMCAwLC03Ljc1NjgyIHogbSAwLC02Mi4wNTQ1NCAwLC03Ljc1NjgyIC03Ljc1NjgyLDAgLTcuNzU2ODEsMCAwLDcuNzU2ODIgMCw3Ljc1NjgxIDcuNzU2ODEsMCA3Ljc1NjgyLDAgMCwtNy43NTY4MSB6IG0gNDYuNTQwOTEsLTcuNzU2ODIgMCwtMTUuNTEzNjQgLTcuNzU2ODIsMCAtNy43NTY4MiwwIDAsMTUuNTEzNjQgMCwxNS41MTM2MyA3Ljc1NjgyLDAgNy43NTY4MiwwIDAsLTE1LjUxMzYzIHogbSAzMS4wMjcyNywtNDYuNTQwOTEgMCwtMzEuMDI3MjcgLTcuNzU2ODEsMCAtNy43NTY4MiwwIDAsMzEuMDI3MjcgMCwzMS4wMjcyNyA3Ljc1NjgyLDAgNy43NTY4MSwwIDAsLTMxLjAyNzI3IHogbSAxNzAuNjUsMjMuMjcwNDUgMCwtNy43NTY4MiAtNy43NTY4MiwwIC03Ljc1NjgxLDAgMCw3Ljc1NjgyIDAsNy43NTY4MiA3Ljc1NjgxLDAgNy43NTY4MiwwIDAsLTcuNzU2ODIgeiBtIC0xNTUuMTM2MzYsLTkzLjA4MTgyIDAsLTcuNzU2ODIgLTcuNzU2ODIsMCAtNy43NTY4MiwwIDAsLTcuNzU2ODEgMCwtNy43NTY4MiAtNy43NTY4MSwwIC03Ljc1NjgyLDAgMCwtNy43NTY4MiAwLC03Ljc1NjgxIC03Ljc1NjgyLDAgLTcuNzU2ODIsMCAwLDcuNzU2ODEgMCw3Ljc1NjgyIDcuNzU2ODIsMCA3Ljc1NjgyLDAgMCw3Ljc1NjgyIDAsNy43NTY4MSA3Ljc1NjgyLDAgNy43NTY4MSwwIDAsNy43NTY4MiAwLDcuNzU2ODIgNy43NTY4MiwwIDcuNzU2ODIsMCAwLC03Ljc1NjgyIHogbSAxNzAuNjQ5OTksMzI1Ljc4NjM2IDAsLTcuNzU2ODIgNy43NTY4MiwwIDcuNzU2ODIsMCAwLDcuNzU2ODIgMCw3Ljc1NjgyIC03Ljc1NjgyLDAgLTcuNzU2ODIsMCAwLC03Ljc1NjgyIHogbSAwLC0xMDAuODM4NjMgMCwtMTUuNTEzNjQgLTcuNzU2ODEsMCAtNy43NTY4MiwwIDAsLTcuNzU2ODEgMCwtNy43NTY4MiA3Ljc1NjgyLDAgNy43NTY4MSwwIDAsNy43NTY4MiAwLDcuNzU2ODEgNy43NTY4MiwwIDcuNzU2ODIsMCAwLDE1LjUxMzY0IDAsMTUuNTEzNjMgLTcuNzU2ODIsMCAtNy43NTY4MiwwIDAsLTE1LjUxMzYzIHogbSAtMzcyLjMyNzI2LC0yMy4yNzA0NSAwLC03Ljc1NjgyIDE1LjUxMzY0LDAgMTUuNTEzNjMsMCAwLDcuNzU2ODIgMCw3Ljc1NjgxIC0xNS41MTM2MywwIC0xNS41MTM2NCwwIDAsLTcuNzU2ODEgeiBtIDkzLjA4MTgyLC0xMjQuMTA5MSAwLC03Ljc1NjgxIDE1LjUxMzYzLDAgMTUuNTEzNjQsMCAwLDcuNzU2ODEgMCw3Ljc1NjgyIC0xNS41MTM2NCwwIC0xNS41MTM2MywwIDAsLTcuNzU2ODIgeiBtIC05My4wODE4MiwtNzcuNTY4MTggMCwtNTQuMjk3NzIgNTQuMjk3NzIsMCA1NC4yOTc3MywwIDAsNTQuMjk3NzIgMCw1NC4yOTc3MyAtNTQuMjk3NzMsMCAtNTQuMjk3NzIsMCAwLC01NC4yOTc3MyB6IG0gOTMuMDgxODIsMCAwLC0zOC43ODQwOCAtMzguNzg0MSwwIC0zOC43ODQwOCwwIDAsMzguNzg0MDggMCwzOC43ODQxIDM4Ljc4NDA4LDAgMzguNzg0MSwwIDAsLTM4Ljc4NDEgeiBtIC02Mi4wNTQ1NSwwIDAsLTIzLjI3MDQ1IDIzLjI3MDQ1LDAgMjMuMjcwNDYsMCAwLDIzLjI3MDQ1IDAsMjMuMjcwNDYgLTIzLjI3MDQ2LDAgLTIzLjI3MDQ1LDAgMCwtMjMuMjcwNDYgeiBtIDIxNy4xOTA5MSw0Ni41NDA5MSAwLC03Ljc1NjgxIDcuNzU2ODIsMCA3Ljc1NjgxLDAgMCw3Ljc1NjgxIDAsNy43NTY4MiAtNy43NTY4MSwwIC03Ljc1NjgyLDAgMCwtNy43NTY4MiB6IG0gMzEuMDI3MjcsLTQ2LjU0MDkxIDAsLTU0LjI5NzcyIDU0LjI5NzczLDAgNTQuMjk3NzIsMCAwLDU0LjI5NzcyIDAsNTQuMjk3NzMgLTU0LjI5NzcyLDAgLTU0LjI5NzczLDAgMCwtNTQuMjk3NzMgeiBtIDkzLjA4MTgxLDAgMCwtMzguNzg0MDggLTM4Ljc4NDA4LDAgLTM4Ljc4NDEsMCAwLDM4Ljc4NDA4IDAsMzguNzg0MSAzOC43ODQxLDAgMzguNzg0MDgsMCAwLC0zOC43ODQxIHogbSAtNjIuMDU0NTQsMCAwLC0yMy4yNzA0NSAyMy4yNzA0NiwwIDIzLjI3MDQ1LDAgMCwyMy4yNzA0NSAwLDIzLjI3MDQ2IC0yMy4yNzA0NSwwIC0yMy4yNzA0NiwwIDAsLTIzLjI3MDQ2IHoiIHN0eWxlPSJmaWxsOiMyZTM0MzYiLz4mI3hhOyAgPC9nPiYjeGE7PC9zdmc+;" parent="Tzo3N7kp3yUF2yP0TB6r-5" vertex="1">
          <mxGeometry x="460" y="50" width="100" height="100" as="geometry" />
        </mxCell>
        <mxCell id="A-P7cqqWQ2VC0WoIVPtm-45" value="" style="group" parent="Tzo3N7kp3yUF2yP0TB6r-5" vertex="1" connectable="0">
          <mxGeometry x="455" y="210" width="110" height="141.32999999999993" as="geometry" />
        </mxCell>
        <mxCell id="A-P7cqqWQ2VC0WoIVPtm-29" value="Planos e históricos de Manutenção" style="rounded=0;whiteSpace=wrap;html=1;" parent="A-P7cqqWQ2VC0WoIVPtm-45" vertex="1">
          <mxGeometry y="95.99666666666661" width="110" height="45.33333333333333" as="geometry" />
        </mxCell>
        <mxCell id="A-P7cqqWQ2VC0WoIVPtm-37" value="Máquina A" style="swimlane;fontStyle=0;childLayout=stackLayout;horizontal=1;startSize=20;horizontalStack=0;resizeParent=1;resizeParentMax=0;resizeLast=0;collapsible=1;marginBottom=0;whiteSpace=wrap;html=1;" parent="A-P7cqqWQ2VC0WoIVPtm-45" vertex="1">
          <mxGeometry width="110" height="96" as="geometry" />
        </mxCell>
        <mxCell id="A-P7cqqWQ2VC0WoIVPtm-38" value="Modelo" style="text;strokeColor=none;fillColor=none;align=left;verticalAlign=middle;spacingLeft=4;spacingRight=4;overflow=hidden;points=[[0,0.5],[1,0.5]];portConstraint=eastwest;rotatable=0;whiteSpace=wrap;html=1;" parent="A-P7cqqWQ2VC0WoIVPtm-37" vertex="1">
          <mxGeometry y="20" width="110" height="20" as="geometry" />
        </mxCell>
        <mxCell id="A-P7cqqWQ2VC0WoIVPtm-39" value="Serie" style="text;strokeColor=none;fillColor=none;align=left;verticalAlign=middle;spacingLeft=4;spacingRight=4;overflow=hidden;points=[[0,0.5],[1,0.5]];portConstraint=eastwest;rotatable=0;whiteSpace=wrap;html=1;" parent="A-P7cqqWQ2VC0WoIVPtm-37" vertex="1">
          <mxGeometry y="40" width="110" height="16" as="geometry" />
        </mxCell>
        <mxCell id="A-P7cqqWQ2VC0WoIVPtm-40" value="Volume Total" style="text;strokeColor=none;fillColor=none;align=left;verticalAlign=middle;spacingLeft=4;spacingRight=4;overflow=hidden;points=[[0,0.5],[1,0.5]];portConstraint=eastwest;rotatable=0;whiteSpace=wrap;html=1;" parent="A-P7cqqWQ2VC0WoIVPtm-37" vertex="1">
          <mxGeometry y="56" width="110" height="22" as="geometry" />
        </mxCell>
        <mxCell id="A-P7cqqWQ2VC0WoIVPtm-41" value="..." style="text;strokeColor=none;fillColor=none;align=left;verticalAlign=middle;spacingLeft=4;spacingRight=4;overflow=hidden;points=[[0,0.5],[1,0.5]];portConstraint=eastwest;rotatable=0;whiteSpace=wrap;html=1;" parent="A-P7cqqWQ2VC0WoIVPtm-37" vertex="1">
          <mxGeometry y="78" width="110" height="18" as="geometry" />
        </mxCell>
        <mxCell id="A-P7cqqWQ2VC0WoIVPtm-47" value="Plano/Historico de Manutenção" style="shape=table;startSize=30;container=1;collapsible=1;childLayout=tableLayout;fixedRows=1;rowLines=0;fontStyle=1;align=center;resizeLast=1;html=1;whiteSpace=wrap;" parent="Tzo3N7kp3yUF2yP0TB6r-5" vertex="1">
          <mxGeometry x="455" y="410" width="250" height="90" as="geometry" />
        </mxCell>
        <mxCell id="A-P7cqqWQ2VC0WoIVPtm-51" value="" style="shape=tableRow;horizontal=0;startSize=0;swimlaneHead=0;swimlaneBody=0;fillColor=none;collapsible=0;dropTarget=0;points=[[0,0.5],[1,0.5]];portConstraint=eastwest;top=0;left=0;right=0;bottom=1;html=1;" parent="A-P7cqqWQ2VC0WoIVPtm-47" vertex="1">
          <mxGeometry y="30" width="250" height="30" as="geometry" />
        </mxCell>
        <mxCell id="A-P7cqqWQ2VC0WoIVPtm-52" value="Func." style="shape=partialRectangle;connectable=0;fillColor=none;top=0;left=0;bottom=0;right=0;fontStyle=1;overflow=hidden;html=1;whiteSpace=wrap;" parent="A-P7cqqWQ2VC0WoIVPtm-51" vertex="1">
          <mxGeometry width="60" height="30" as="geometry">
            <mxRectangle width="60" height="30" as="alternateBounds" />
          </mxGeometry>
        </mxCell>
        <mxCell id="A-P7cqqWQ2VC0WoIVPtm-53" value="Datas" style="shape=partialRectangle;connectable=0;fillColor=none;top=0;left=0;bottom=0;right=0;align=left;spacingLeft=6;fontStyle=5;overflow=hidden;html=1;whiteSpace=wrap;" parent="A-P7cqqWQ2VC0WoIVPtm-51" vertex="1">
          <mxGeometry x="60" width="190" height="30" as="geometry">
            <mxRectangle width="190" height="30" as="alternateBounds" />
          </mxGeometry>
        </mxCell>
        <mxCell id="A-P7cqqWQ2VC0WoIVPtm-54" value="" style="shape=tableRow;horizontal=0;startSize=0;swimlaneHead=0;swimlaneBody=0;fillColor=none;collapsible=0;dropTarget=0;points=[[0,0.5],[1,0.5]];portConstraint=eastwest;top=0;left=0;right=0;bottom=0;html=1;" parent="A-P7cqqWQ2VC0WoIVPtm-47" vertex="1">
          <mxGeometry y="60" width="250" height="30" as="geometry" />
        </mxCell>
        <mxCell id="A-P7cqqWQ2VC0WoIVPtm-55" value="0001" style="shape=partialRectangle;connectable=0;fillColor=none;top=0;left=0;bottom=0;right=0;editable=1;overflow=hidden;html=1;whiteSpace=wrap;" parent="A-P7cqqWQ2VC0WoIVPtm-54" vertex="1">
          <mxGeometry width="60" height="30" as="geometry">
            <mxRectangle width="60" height="30" as="alternateBounds" />
          </mxGeometry>
        </mxCell>
        <mxCell id="A-P7cqqWQ2VC0WoIVPtm-56" value="12/12/12- Troca do capacitor" style="shape=partialRectangle;connectable=0;fillColor=none;top=0;left=0;bottom=0;right=0;align=left;spacingLeft=6;overflow=hidden;html=1;whiteSpace=wrap;" parent="A-P7cqqWQ2VC0WoIVPtm-54" vertex="1">
          <mxGeometry x="60" width="190" height="30" as="geometry">
            <mxRectangle width="190" height="30" as="alternateBounds" />
          </mxGeometry>
        </mxCell>
        <mxCell id="A-P7cqqWQ2VC0WoIVPtm-60" style="edgeStyle=orthogonalEdgeStyle;rounded=0;orthogonalLoop=1;jettySize=auto;html=1;exitX=0.75;exitY=1;exitDx=0;exitDy=0;entryX=0.5;entryY=0;entryDx=0;entryDy=0;" parent="Tzo3N7kp3yUF2yP0TB6r-5" source="A-P7cqqWQ2VC0WoIVPtm-29" target="A-P7cqqWQ2VC0WoIVPtm-47" edge="1">
          <mxGeometry relative="1" as="geometry" />
        </mxCell>
        <mxCell id="QpGdkABg9Ai-QRt7ouZM-5" value="Sede" parent="0" />
        <mxCell id="QpGdkABg9Ai-QRt7ouZM-6" value="List" style="swimlane;fontStyle=0;childLayout=stackLayout;horizontal=1;startSize=30;horizontalStack=0;resizeParent=1;resizeParentMax=0;resizeLast=0;collapsible=1;marginBottom=0;whiteSpace=wrap;html=1;" vertex="1" parent="QpGdkABg9Ai-QRt7ouZM-5">
          <mxGeometry x="430" y="870" width="140" height="120" as="geometry" />
        </mxCell>
        <mxCell id="QpGdkABg9Ai-QRt7ouZM-7" value="Item 1" style="text;strokeColor=none;fillColor=none;align=left;verticalAlign=middle;spacingLeft=4;spacingRight=4;overflow=hidden;points=[[0,0.5],[1,0.5]];portConstraint=eastwest;rotatable=0;whiteSpace=wrap;html=1;" vertex="1" parent="QpGdkABg9Ai-QRt7ouZM-6">
          <mxGeometry y="30" width="140" height="30" as="geometry" />
        </mxCell>
        <mxCell id="QpGdkABg9Ai-QRt7ouZM-8" value="Item 2" style="text;strokeColor=none;fillColor=none;align=left;verticalAlign=middle;spacingLeft=4;spacingRight=4;overflow=hidden;points=[[0,0.5],[1,0.5]];portConstraint=eastwest;rotatable=0;whiteSpace=wrap;html=1;" vertex="1" parent="QpGdkABg9Ai-QRt7ouZM-6">
          <mxGeometry y="60" width="140" height="30" as="geometry" />
        </mxCell>
        <mxCell id="QpGdkABg9Ai-QRt7ouZM-9" value="Item 3" style="text;strokeColor=none;fillColor=none;align=left;verticalAlign=middle;spacingLeft=4;spacingRight=4;overflow=hidden;points=[[0,0.5],[1,0.5]];portConstraint=eastwest;rotatable=0;whiteSpace=wrap;html=1;" vertex="1" parent="QpGdkABg9Ai-QRt7ouZM-6">
          <mxGeometry y="90" width="140" height="30" as="geometry" />
        </mxCell>
      </root>
    </mxGraphModel>
  </diagram>
</mxfile>
